/* XPM */
static char *a943e970d9c244b7cb20727bbf9068e0scLAlquc63nV4GOn[] = {
/* columns rows colors chars-per-pixel */
"64 64 149 2 ",
"   c #815F39",
".  c #85653D",
"X  c #88673C",
"o  c #89683D",
"O  c #866740",
"+  c #896741",
"@  c #8D6C45",
"#  c #8E6E48",
"$  c #906F46",
"%  c #916F49",
"&  c #8F714B",
"*  c #917146",
"=  c #94734C",
"-  c #98774D",
";  c #97784C",
":  c #99794E",
">  c #977750",
",  c #997651",
"<  c #977953",
"1  c #9C7B54",
"2  c #9F7F58",
"3  c #A07F55",
"4  c #A17E59",
"5  c #9F8054",
"6  c #9E805A",
"7  c #A28154",
"8  c #A38255",
"9  c #A08057",
"0  c #A18057",
"q  c #A28156",
"w  c #A18256",
"e  c #A38257",
"r  c #A28357",
"t  c #A08155",
"y  c #A48356",
"u  c #A28156",
"i  c #A18158",
"p  c #A08059",
"a  c #A28158",
"s  c #A28259",
"d  c #A38259",
"f  c #A0805A",
"g  c #A1815A",
"h  c #A1815B",
"j  c #A2805A",
"k  c #A2805B",
"l  c #A3815B",
"z  c #A3835A",
"x  c #A2825B",
"c  c #A48358",
"v  c #A4835A",
"b  c #A38458",
"n  c #A58459",
"m  c #A48559",
"M  c #A4845B",
"N  c #A5845B",
"B  c #A6855A",
"V  c #A7865B",
"C  c #A6875B",
"Z  c #A2825C",
"A  c #A3835C",
"S  c #A3835D",
"D  c #A4825C",
"F  c #A4825D",
"G  c #A5835D",
"H  c #A5855C",
"J  c #A4845D",
"K  c #A6855C",
"L  c #A6865D",
"P  c #A7865D",
"I  c #A4845E",
"U  c #A5855E",
"Y  c #A5855F",
"T  c #A6845E",
"R  c #A7855F",
"E  c #A7875E",
"W  c #A6865F",
"Q  c #A4835B",
"!  c #A8875A",
"~  c #A8875C",
"^  c #A8875E",
"/  c #A8875D",
"(  c #A7885C",
")  c #A7885C",
"_  c #A8895D",
"`  c #A8885F",
"'  c #A9885F",
"]  c #AA895E",
"[  c #AB8A5F",
"{  c #AA895E",
"}  c #A68660",
"|  c #A78760",
" . c #A78761",
".. c #A78660",
"X. c #A88660",
"o. c #A98761",
"O. c #A98661",
"+. c #A78963",
"@. c #A98960",
"#. c #A88861",
"$. c #AA8960",
"%. c #AA8A61",
"&. c #AB8A61",
"*. c #A88862",
"=. c #A98962",
"-. c #A98963",
";. c #AA8862",
":. c #AA8863",
">. c #AB8963",
",. c #AB8B62",
"<. c #AA8A63",
"1. c #AC8B60",
"2. c #AC8B62",
"3. c #AC8D61",
"4. c #AE8D60",
"5. c #AD8C63",
"6. c #AD8E62",
"7. c #AF8E63",
"8. c #AA8A64",
"9. c #AB8B64",
"0. c #AB8B65",
"q. c #AC8A64",
"w. c #AC8A65",
"e. c #AD8B65",
"r. c #AE8D64",
"t. c #AF8E65",
"y. c #AC8C66",
"u. c #AD8D66",
"i. c #AE8C66",
"p. c #AF8D67",
"a. c #AE8E67",
"s. c #AB8A63",
"d. c #AE8E68",
"f. c #AF8F68",
"g. c #AF8F68",
"h. c #B18E65",
"j. c #B08E68",
"k. c #B18F69",
"l. c #B18F69",
"z. c #B09067",
"x. c #B19067",
"c. c #B59467",
"v. c #B19065",
"b. c #B0906A",
"n. c #B5966A",
"m. c #B4926C",
"M. c #B5956E",
"N. c #B2926A",
"B. c #B89670",
/* pixels */
":.2 1 v ] y 3 8 1 - = - 3 3 1 1 q = * 1 1 * 1 1.3 y $ X 3 c.! : B 3 +.-.1 > 1 > > > 2 < 4 2 4 2 < > + @ , , = % , 3 6 1 1 1 1 2 ",
"k 1 2 v 3 3 3 ! 3 3 3 4 4 v v v N : ; v ~ 1 = * q h.! : y B : = 4 = 1 6 > = > > 2 } w.< 2 < 4 2 4 4 4 4 k.:.4 4 , , L u.u.H 6 H ",
"2 = $ - B 1.v : 1 3 y 3 3 1 3 v _ 3 1 q ~ ~ v 3 * : 3 y [ ! 3 3 4 1 1 1 > 1 6 6 < 2 X.= < < :.} 4 4 2 1 O.O.4 4 , > 2 :.} = = > ",
"3 * . + 1 h.[ 3 $ : 3 3 - = - 1 = 1 k q k ! 5.h.3 : 1 y ! 3 $ $ k 1 2 k 2 2 L -.+.4 } < < @ > @ X.X.1 , 4 X.X.:.4 1 > > & @ @ = ",
"1 : - $ $ 1 o.h.@ 1 N v 1 1 - , @ 1 ' L N N N 5 [ q v v 4 1 = % = : 5 6 1 ; 1 6 } < 4 2 } = # @ = 1 4 , 4 :.4 4 H } 1 = = 1 } +.",
"3 3 y ! v 3 , , = 3 ~ N y y 3 : 1 q y q N 6.' 1 = * 4 4 - - 4 o.= 1 q r m 1 = 1 > # 2 2 d.2 Z Z % 4 , , , 4 4 4 H +.H > > +.u.y.",
"8 : 3 4.h.4 % O : y N q v ~ k : ' ' q 1 q :.z.:.= = T T = , 4 4 ; 5 5 r 3.r * : < 2 +.2 } 2 Z 1 4 k.:.4 4 X.:.k.Z Z 1 > = 1 6 1 ",
"4.8 : 3 - $ = 4 3 v k 3 k ' N : 1 N [ N 1 : 1 q , = 4 4 4 O.h.2 ; 5 ; 5 3.r * * @ 2 -.> > < } 1 4 w.:.4 4 4 4 4 Z 1 = & = = ; 1 ",
"@ : @ @ * : Z ; : q C C r 6 r _ 1 = 6 6 6 k & = & > 1 > > > > = o # 1 L 4 , X.4 3 v 1 @ + $ - ~ h., 4 O.4 , T 4 :.1 = 4 T v 2 3 ",
"= : * 6 ( 6 k : $ 1 6 1 1 ( ' N 1 2 1 k 1 : 1 1 d.> + # 1 1 < = 1 1 , T , % , 4 T T 3 - 4 3 - * X.4 T w.X.4 3 4 4 1 2 T :.4 , , ",
"m 1 * m :.1 r ( = 1 1 = < +.' 1 > } 1 k 1 @ H k y.1 6 2 d.H L k j.4 1 Z , , 4 X.- v ~ ~ O.~ 1 3 , 4 , 4 4 4 , 4 } 4 T T X.4 4 :.",
"6 : $ 5 6 * 1 ' 6 Z 2 = : 6 1 = > H 2 Z 1 = 6 6 = < } 1 } 2 ( q 4 3 = = % % 4 3 = v ~ T ~ L v 1.% , , % , 4 4 4 2 4 2 2 3 4 4 j.",
"$ : 1 H 6 = 5 6 } L 6 2 1 > > 1 > 1 -.L m +.: < +.1 : $ q 1 m 6 4 :.4 , @ % 4 % T v : , ~ 1.v 3 $ 4 4 4 w.X., % @ % , 4 , , , , ",
"* m m m 1 : m m L 3 6 m 2 < 1 } ; = +.6 6 :.= & z.k 6 <.N = = N 4 j.w.4 4 4 o.% 2 3 1 3 o.1.v 4 , , 4 4 h.o.4 , = 4 4 4 4 4 , % ",
"q +.6 1 1 = L ( 1 1 6 r 5 1 6 L = : 1 < 1 Z 1 = * r r 3.* = o 1 , , , X.X.4 X.% @ 1 3 3 v T v ~ 4 , , 4 4 X.O.:.4 X.4 , 4 4 X.4 ",
"6 H 1 ( m 1 1 1 1 m r 5 : 5 7 1 1 +.< 1 1 1 z.m ; 6.; ; X n.! = 4 = = 5.k.X.4 % : : $ * v ~ 2 * j., 4 j.O.T 4 4 % , , = , T 4 % ",
"+ = 6 k 1 < ; = < > 2 2 2 +.:.< # } 4 2 4 } < < = 4 :.4 % X.l.3 3 X., = h.o.= $ 4 X., , 4 = 4 4 , 4 , = T 4 @ $ 4 B 1 @ L L :.6 ",
"1 @ @ 2 H = < -.2 2 2 2 2 4 4 1 > 2 < , 4 } 2 4 4 = % = 4 4 T 4 , X., @ 4 o.3 y 4 4 , 3 :.4 T 4 4 O., , 4 4 % 4 4 4 3 $ L N ' N ",
"= 1 1 ; @ @ 2 M.+.4 2 2 < > < < > < > < 4 4 4 } , % @ % X.o.4 4 4 h.3 @ , X.B ] 4 4 = 4 O.4 4 4 4 4 4 , = , 4 :.3 v 3 = 1 : : : ",
"= 6 H < + # 1 :.d.2 2 2 > # < < & < 4 4 } } < > % 4 4 % 4 4 4 4 ] m.4 @ % 4 3 3 4 :., , , , 4 X.O.4 4 , % 4 T T , 3 2 * 1 : $ @ ",
"d.1 ; L y.1 : 1 d.2 < 1 > < 2 6 < 4 d.+.4 4 < # 4 k.T % % 2 3 T ! h.4 % , 4 3 1 4 O.4 4 4 , 4 4 :.4 4 , , 4 4 % : 6 1 1 C ( 1 = ",
"} 1 1 :.y.6 < < 2 # % < > < } } < 2 4 2 2 4 } < j.X.3 4 T , % > 3 3 3 2 4 4 T v = 4 , 4 h.O.4 % 4 4 , , 4 :.4 = 6 m : m +.z.1 1 ",
"= Z +.1 = : 1 6 = > 1 1 # < H H < @ # 2 < < } } 4 = , X.X.4 ; @ 1 1 2 , , 3 4 4 % 3 , , X.4 2 % @ , , % 4 :.4 4 ( ' : 6 6 ( : 1 ",
"y.1 < 2 < = 1 z.> Z -.Z > < } L :.O O 2 2 > > < 2 , , , % 4 u.6 y 4 4 4 % + * , , O.4 4 4 = = , @ 4 3 % 4 4 , 4 m ( : 1 : m 1 ( ",
"= < :.1 2 = 1 2 # 1 } 6 = < k :.+ 4 :.= , , 4 , = 2 T 2 k z.k : 3 h.X., 4 4 , , 4 , 5.X.4 4 , k.3 - @ @ v O.v v :.1 3 % , % , % ",
"& 1 1 1 ; < 1 2 Z Z k Z L Z < + 1 4 4 2 4 4 4 j.% , Z 1 6 <.6 1 , , , 4 j.4 % , X., 4 4 4 4 % , L ~ q v 1.1.v v > = , = X.4 X.3 ",
"Z } 6 <.1 +.H -.6 k k 6 H H 1 > 4 k.4 > 4 j.i.4 & 1 T , < 6 : = :.4 % , 4 , % , j.4 4 4 X.X., 4 * 4 q q ~ ~ ~ h.@ = 4 = 4 4 4 , ",
"2 H 6 ( 1 2 1 Z = ; 1 6 k L +.H 4 :.4 @ , :.4 , 1 1 } 1 = 1 = 1 O.O.3 % = 4 4 , , , 4 3 , % , X.~ 1.k - , 2 1 v < 4 O.= 4 4 4 1 ",
"> 1 L k 6 = 1 2 q 1 < 1 +.L 1 & 4 = @ , 4 , % 4 k k :.k 1 6 6 :., 4 X.4 4 X.X.3 = , 4 2 , % 4 O.m.N.v - 3 v v T 4 O.k.4 4 , :.X.",
"1 1 f.+.-.; 6 } u.H 1 1 = = < < 4 4 4 4 :., % 4 L k +.1 < : = 6 4 4 4 j.X.4 4 X.T T , 4 T 4 X.4 v v 1 ; v 1.O.~ , 4 k.4 X., 4 1 ",
"2 1 L L 6 = = 1 +.:.L 1 & @ 1 d.4 m.j.4 4 X., % 6 < 6 1 ; & + = B.4 4 O.4 , 4 :.4 4 @ , T T 4 @ v 1.v - - : % % , , 4 X.:., , % ",
"+.+.k y.1 ; @ > k 1 H +.y.H 1 1 4 w.4 4 X.X.1 = = @ 1 1 1 > = 1 X.4 X.X., 4 X., 4 4 = T j.O.O.% 3 u.1.- * % - 3 4 % , 4 j.4 , % ",
"} 2 < < 6 } 6 = 2 4 < < , % % , 6 :.1 < d.-.> ; X.4 3 4 X.4 , = 4 = * v 3 - 3 h.4 4 2 % $ , 4 , 1.! 3 - ! 4.! ] : = = T >.O.4 4 ",
"= > > 1 1 1 < < < w.4 > , w.4 4 : 1 = 1 u.1 @ 6 4 4 4 4 X.:.4 3 @ , T h.B - ; : , 4 4 , . O % % $ = - - 8 3 : : ! 4./ : 3 4 4 % ",
"M.+.2 H y.-.H 1 < 4 4 < 4 4 w.4 1 > . = u.Z = < , , , 2 4 4 4 4 4 4 4 B ! ! 3 o 3 3 4 3 , 4 4 , = : : : 3 : - 3 3 * - ] j.4 , , ",
"Z 1 = = H N.f.H < < < 4 4 4 , 4 k 6 = + 6 :.2 = 4 X.4 4 , , = = T 4 = = 4 ] ! ! 1 * - : 3 T ] = 8 B ! ! ! 8 8 4.3 ! B 3 4 4 , % ",
". : 1 $ @ 1 k 5 < # & 2 :., = w.: L k = # , 2 Z :.:.:.T 4 T T T X = : 3 3 - : h.: 3 y 3 = : q : - 3 8 4.v.! 3 3 B [ ~ , % 4 4 4 ",
"> :.z.6 > 1 = @ < < < 2 :.4 4 4 6 6 6 1 > ; Z N., 4 4 3 4 :.j.j.= 3 : 3 3 $ O 2 ! ! [ ! 7 y ' y = - ; 3 ! - - 3 3 1 3 o.4 , , X.",
": 5 1 5 H L 2 & < 2 < & 4 :.4 2 y.6 k m 2 2 T :.X.4 4 % = , 2 1 v.4.= $ T 4 $ @ 7 : 3 3 3 _ [ : 3 3 : : - = ; 4.- [ h., , 4 4   ",
"3.b r [ } < 2 +.< < O O 1 } 4 1 1 -.N.H % > T 4 , 4 , , , v } L : 4.3 % o.i., , ; : ! ! : : y 7 3 8 ! y 3 $ * ! 3 : % % , 1 4 4 ",
": 5 6 2 Z 1 & < > 4 2 8.2 + < +.+.1 1 +.Z = ; < Z k 6 = 1 ( Z +.y : : : >.3 h.h.- , 4 q.Z < > 6 = - ~ 2 1 ] * $ $ o ! 8 h.. = B ",
"< < = > < @ # 2 } :.2 2 2 < 2 > -.H y.d.1 = 1 +.1 ; < < 1 > . # - - - 4 4 3 4 3 4 4 % % 1 Z k < v o.~ ~ ~ o.1.4 ! = 3 : h.= , 3 ",
"H 6 : 1 4 & & 4 } +.2 2 2 } } > 6 1 6 1 # + > 6 L 1 1 1 Z 2 = 1 3 3 o 4 3 3 3 T = T >.3 = = ; > ~ j.2 v v - 1.4 ! : ! : O.= 4 3 ",
"6 k 6 L 4 < 2 4 < } 2 2 2 } Z 2 k : ; > : 1 k 1 6 k k > 1 H 1 6 4 4 * 3 : 3 4 ] + % 4 4 H } 6 1 v v = 3 3 * 3 4 : 3 4.: 4 = , , ",
"= < , , 2 < < < 1 2 2 6 Z Z 2 1 6 = = 1 6 } H ; 1 k <.+.L 1 & 2 3 3 4 4 ! * : = 2 = > k -.:.6 1 3 - q v B B 3 h.! 3 3 - 4 3 , % ",
"= 2 , % < < < & 1 & < < } y.k 6 1 = < 1 1 < > = L < 6 ( H = + y.[ 4 ] 4 / $ 1 = T 2 1 +.u.H 1 < v , 1.v y B = B 4.[ ! : 3 3 4 4 ",
"4 L 4 4 4 4 < & 1 < 1 = 1 +.6 Z } 1 2 :.6 1 2 H < & @ @ & = & -.c.4.3 4 4 = 4 3 4 = @ 1 u.N.H & v v ~ 4 : - $ = 3 ! B 3 , 4 4 4 ",
"N k 4 d.B.4 & % } w.M.> O 1 > 1 f.1 < H Z 2 } -.: k 6 @ = y.H 1 4 4 $ ] V B 3 : T d.5.> . . = 1 1 1.3 4 : $ 3 : : = $ : T j.4 , ",
"q 7 3 7 ! ! 3 * $ L +.1 < 2 1 O + = 1 H H 6 1 ; 1 k k : 1 m ( m 1 1 1 2 2 > # @ 4 4 , % , T o.T ; } 4 k Z H +.&   , 4 = = 2 4 4 ",
"N y 7 7 y ! ! B , 2 1 = = ; > = 6 k m H Z 2 < > } ( 1 ; ; q :.( 1 1 2 Z 2 < < 2 $ B v $ * ] T $ 1 -.+.:.1 = 1 ; 2 Z k 4 2 = = 4 ",
"3 : ; = - 3 ! h.N.L 1 1 1 2 6 d.6 1 1 1 < 1 1 1 1 k m 1 : 6 1 : 1 2 4 } T Z +.w.] B B B [ ] v 3 6 1 ; k H 1 1 1 O.O.T 4 4 , % 3 ",
"[ ! 7 : : : v h.h.k 1 2 2 < 2 d.k 6 1 1 6 L L } ; 1 m k 6 : = @ < = % ; 1 2 2 } h.3 : v ! 3 y m.< = @ 1 6 1 1 1 4 O.k , 4 4 3 % ",
"v.' 4 3 , = = , 6 6 6 1 1 ; 1 Z m 6 1 6 k k k k m m k 1 : : 1 1 6 < = > 2 4 4 4 3 3 3 1 2 4 :.o.& 2 L 2 = = < 6 4 X.4 , 4 T , % ",
"1 1 2 4 3 , , 3 1 k L k 1 2 k 6 k 1 1 6 q k 6 1 m H m m 6 6 q m y.H 1 2 4 } +.} - , 3 ~ :.4 , 1 ; 1 :.2 1 6 1 1 j.4 4 4 :.4 % % ",
"= = 3 X.O.4 o.k.: ; = < 1 1 1 2 +.H k 6 L +.1.-.1 6 m k q 6 5 y k 1 1 < , < 4 4 , # % 4 4 % + < 1 = < 2 +.d.1 > j.4 , 4 :., % = ",
"@ @ , , , % , o.6 = + = 1 6 Z L L 1 = & = 1 1 3 1 1 ; = $ = 6 ' 6 k k 6 , < 4 d.4 :.4 , & 1 4 2 2 @ 1 L :.H # < 4 4 , % 4 4 3 , ",
":., , , , , , = 1 } , T j.4 T 2 4 4 3 2 - : y 3 1 1 - ; * * - q L H } } 2 > 1 Z < k H 1 = > Z d.; 1 k 6 1 1 1 2 3 4 , , 4 O.4 , ",
"4 , 4 X.X.4 4 , 2 T , 2 T 2 3 3 - 2 4 3 1 B h.h.3 - - k 1.N 1 = 1 1 Z } 2 ; > 1 } u.d.H < > 2 Z 1 6 m m +.+.} Z , X.X.X.j.j.4 = ",
"4 4 4 4 X.X.4 X.T 4 4 = , 4 , 4 : 3 y 3 : 3 4 4 $ ; 3 1.u.~ 1 : 1 6 m H 1 < 1 6 1 Z L 6 1 > < 1 1 2 k k L :.} 2 % 4 4 4 X.4 , = ",
"4 4 % % 4 4 X.k.O.4 T , 4 4 , X.! ! y 3 3 = % = @ = 3 N v k T ~ < 1 H L k 1 k +.> ; ; 1 1 1 1 ; < 2 6 1 k L Z 1 % , 4 , , , , 4 ",
", 4 3 , 4 4 4 4 X.4 4 = , 4 , X.h.! 3 y 1.2 % 2 ~ q - 1 y ' N q & 1 H +.L k k k :.6 : 1 Z L 1 : 1 6 Z 1 2 4 2 > , 4 4 , , , , X.",
"4 4 4 , 4 4 4 3 4 , , % , , , 4 ] T 3 y h.k , ~ 5.:.y 1 1 1 : * = 1 +.y.y.+.6 : :.6 < 1 L } 6 < 1 Z L 2 2 4 2 ; , T O.4 4 = , 4 ",
"X.X.4 4 , , 4 , , 3 % , 4 4 , , 2 X.y : v 1 = y 3 ~ 1.k - = ; * 1 L +.} H H 1 = 6 1 < 1 k 6 1 1 1 k Z 1 2 T 4 % , 4 4 , , % % 4 ",
"4 4 X.4 , 4 X., % 4 , :.B.O.4 @ @ 5.T * : 3 : y v q 3 1 k L 4 ; -.+.1 = > 1 : & Z k H } H 1 1 6 1 Z 6 1 Z 5.O.= , 4 4 4 4 , 3 w."
};
