/* XPM */
static char *_b7d7ba7239c460a873f677a6e95252e51VvcnMX1pUXFaxI[] = {
/* columns rows colors chars-per-pixel */
"64 64 154 2 ",
"   c None",
".  c #643C17",
"X  c #653E19",
"o  c #6A3E1A",
"O  c #71381A",
"+  c #763E25",
"@  c #7D3825",
"#  c #19561A",
"$  c #1A5B1B",
"%  c #344C1A",
"&  c #3D4A1A",
"*  c #21541A",
"=  c #28511A",
"-  c #1B631C",
";  c #1C6B1D",
":  c #1D741F",
">  c #1E7A1F",
",  c #1E7C20",
"<  c #4C471A",
"1  c #594E1B",
"2  c #64441A",
"3  c #6B4119",
"4  c #73451A",
"5  c #79471A",
"6  c #7C4A1B",
"7  c #63501B",
"8  c #7B4227",
"9  c #764428",
"0  c #7D442B",
"q  c #7F4C31",
"w  c #A31F1A",
"e  c #AE1B1B",
"r  c #B21E1E",
"t  c #B81F1F",
"y  c #A9201D",
"u  c #86392B",
"i  c #9C3434",
"p  c #9D3D3D",
"a  c #B32222",
"s  c #BE2323",
"d  c #B52A2A",
"f  c #BC2B2B",
"g  c #A53B3B",
"h  c #BC3333",
"j  c #BB3B3B",
"k  c #C22626",
"l  c #CA2727",
"z  c #C32B2B",
"x  c #CB2B2B",
"c  c #D02A2A",
"v  c #C63333",
"b  c #CB3434",
"n  c #C53A3A",
"m  c #CA3C3C",
"M  c #D13636",
"N  c #D13C3C",
"B  c #844D1C",
"V  c #884F1C",
"C  c #87501D",
"Z  c #8C521D",
"A  c #93561E",
"S  c #9A5A1F",
"D  c #864A33",
"F  c #884A37",
"G  c #954138",
"H  c #985647",
"J  c #A54343",
"K  c #AD4444",
"L  c #A64C47",
"P  c #A94D4D",
"I  c #B14444",
"U  c #BD4242",
"Y  c #BE4846",
"T  c #B04B4B",
"R  c #BB4D4D",
"E  c #AE5353",
"W  c #BD5555",
"Q  c #B65A57",
"!  c #B35B5B",
"~  c #BB5959",
"^  c #A76355",
"/  c #A96658",
"(  c #B3675D",
")  c #B66161",
"_  c #B96262",
"`  c #B06C61",
"'  c #C64444",
"]  c #CC4343",
"[  c #C34C4C",
"{  c #CE4B4B",
"}  c #D24444",
"|  c #D24C4C",
" . c #C65555",
".. c #CF5353",
"X. c #C55A5A",
"o. c #CE5D5D",
"O. c #D25454",
"+. c #D35C5C",
"@. c #CC6363",
"#. c #C06B6C",
"$. c #CE6D6D",
"%. c #D46161",
"&. c #D26767",
"*. c #D56565",
"=. c #D46464",
"-. c #D46B6B",
";. c #D86C6C",
":. c #CD706F",
">. c #C27171",
",. c #C97474",
"<. c #CF7474",
"1. c #CE7776",
"2. c #C67C7C",
"3. c #C87D7B",
"4. c #D07272",
"5. c #D47373",
"6. c #D97474",
"7. c #D57D7D",
"8. c #D57F7F",
"9. c #D57B7B",
"0. c #DA7B7B",
"q. c #1F8020",
"w. c #1F8120",
"e. c #1F8220",
"r. c #1F8320",
"t. c #1F8721",
"y. c #1F8521",
"u. c #208621",
"i. c #208821",
"p. c #208921",
"a. c #208B21",
"s. c #208A21",
"d. c #208C21",
"f. c #219122",
"g. c #D77F80",
"h. c #D48181",
"j. c #D68080",
"k. c #D58484",
"l. c #D68585",
"z. c #D68787",
"x. c #D58484",
"c. c #DB8484",
"v. c #D78C8C",
"b. c #D58B8B",
"n. c #D88E8E",
"m. c #DB8B8B",
"M. c #D79090",
"N. c #D49292",
"B. c #D69292",
"V. c #DC9393",
"C. c #DB9A9A",
"Z. c #DD9B9B",
"A. c #DEA2A2",
"S. c #DEA4A4",
/* pixels */
"            #                                                                                                                   ",
"            # # #                                             X X 2 2 X                                                         ",
"            # $ $ # #                                       X 4 V A Z o                                                         ",
"              # : : - # # #   # # # # $ # $ # # #         X 6 S S S A o                                                         ",
"              # - p.p.> ; - - - ; ; : > , , , , ; $ #     3 Z S S S Z 2                                                         ",
"                # - t.d.p.p.p.p.d.t.q.> , q.t.f.f.p.; $ % 2 Z A A A Z o                                                         ",
"                  # - r.q.: ; ; - $ $ $ $ $ $ ; q.d.p.: # < V A A A C o                                                         ",
"                    $ ; , > : : : : > > q.> , ; ; : r.t.; = 6 Z Z Z V X                                                         ",
"                      # - : > > , , , , , , , , > > > q.: $ 7 Z Z C 6 o                                                         ",
"                        $ - ; : , , ; , , ; , , > : > : : $ 1 C V V 6 X                                                         ",
"                          # $ ; ; ; ; ; ; ; , ; : : : : - * 2 C B V 6 X                                                         ",
"                            # $ - - ; ; - ; - ; ; ; ; - $ & 3 6 6 6 4 X                                                         ",
"                                # $ $ - - - - - $ $ # #     o 6 6 6 4 .                                                         ",
"                                  # # # # $ # # # #         X 4 5 5 4 X                                                         ",
"                                                            X 4 5 4 3 X                                                         ",
"                                                      e e w O 3 4 4 3 O y e e e                                                 ",
"                                              e r a d h j Y 8 X 4 3 X 0 X. .Y j d e e                                           ",
"                                        e e a j '  .=.&.$.@.D X o 3 X q ,.g.g.g.<.X.j a e                                       ",
"                                    e e d { ..*.*.%.W J i i @ X X o X + J E _ ,.h.l.h.$.U r e                                   ",
"                                e r h { +.+.%.o.Y g i i i i u X . X . + p p p J _ B.v.z.h.@.d e                                 ",
"                              e d ] O.+.+.+.+.I g g g J J J G o . . . 0 P P P P E N.A.C.b.z.1.j e                               ",
"                            e h | O.O.O.+.+.%.R K K K K T T L o . . X D ) _ ) ) 2.A.S.S.S.C.l.7.Y e                             ",
"                        e a v | | O.+.+.+.%.%.&.o.X.W ~ ~ ~ Q 9 X X X H _ ` 2.N.S.S.S.S.S.S.N.b.9.U e                           ",
"                        e n | | O.O.O.+.+.+.%.&.*.-.-.$.-.$.<.( ^ / ` 3.h.b.C.A.S.S.S.S.S.S.S.A.l.1.j e                         ",
"                      e v ] | | O.O.O.+.%.%.%.&.&.-.-.5.5.5.9.9.9.x.z.z.z.b.N.Z.S.S.S.S.S.S.S.S.V.h.$.d e                       ",
"                    e f } | | | | O.O.+.+.%.%.&.-.-.-.5.5.5.9.9.g.h.k.z.b.b.B.N.S.S.S.S.S.S.S.S.Z.b.h. .e                       ",
"                  e a m } } ] | | O.+.+.+.%.%.*.-.-.-.5.5.5.9.9.g.h.l.z.b.b.B.B.C.S.S.S.S.S.S.S.S.Z.l.9.j e                     ",
"                  r v } m ] | | | O.O.+.+.%.%.*.*.&.5.-.5.5.9.9.7.h.z.z.z.b.M.B.N.A.S.S.S.S.S.S.A.A.V.9.@.a                     ",
"                e a N } m ] ] | | O.O.+.+.+.%.&.-.-.-.5.5.5.9.9.7.h.h.z.b.b.N.b.B.B.Z.A.A.A.A.Z.Z.A.Z.c.5.U e                   ",
"                e v N m m ] ] | | | O.O.+.%.%.&.*.-.-.5.5.5.5.9.7.h.h.z.z.z.b.b.v.v.B.Z.Z.A.Z.Z.Z.Z.Z.V.9.o.a                   ",
"                r M m m m m ] { | | ..O.+.+.%.%.&.*.-.-.5.5.5.9.7.7.h.k.z.z.b.b.b.b.v.V.Z.Z.Z.Z.Z.Z.Z.V.8.5.h e                 ",
"              e f N m b m } ] } { { O.....+.%.&.*.-.&.5.5.5.5.9.9.7.h.h.k.z.z.z.b.b.l.m.V.Z.Z.V.Z.Z.V.Z.z.5. .e                 ",
"              e x N b m n ] ] ] ] { { O...+.o.%.*.*.-.-.-.5.5.5.9.9.7.7.h.h.l.l.l.l.l.l.b.V.V.V.V.V.V.Z.V.6.&.a                 ",
"              r b b v b m m m ] { { { ......+.%.%.&.-.-.-.5.5.5.5.9.7.7.h.h.h.k.l.z.l.l.h.n.V.V.V.V.V.V.V.0.-.h e               ",
"            e a N v b v n m m ] ] { { { ..+.+.%.%.&.-.-.-.5.5.5.5.9.9.9.7.7.g.h.h.h.h.h.h.z.n.n.V.V.V.m.V.c.;.' e               ",
"            e s N x v v b m m ] ] ] { { ......%.+.%.&.&.-.-.5.5.5.5.5.9.9.7.7.7.9.h.9.9.9.9.m.m.m.m.m.m.n.m.6.O.a               ",
"            e z M v v v n m m m ] ] ] { { ......+.%.&.&.*.-.-.-.5.5.9.5.5.9.9.9.9.9.9.9.9.9.8.c.m.m.m.m.m.m.6.+.a               ",
"            e z x z x v v b m m m ] ' { { ........%.+.&.-.&.-.5.-.5.5.5.5.9.5.5.9.9.5.9.5.5.0.j.c.c.c.m.c.c.0.+.d e             ",
"            e x b z v v v n n m m ] ] { { { ......+.+.%.&.*.*.-.-.-.-.5.5.5.5.9.5.5.5.5.5.5.5.9.c.c.c.c.c.c.0.*.h e             ",
"            a x x z z z v v v m m m ] ] { { { ....o...%.%.*.&.-.-.-.4.-.5.-.5.5.5.5.5.5.5.5.5.5.0.0.c.0.c.c.0.*.n e             ",
"            r x x f z v v v v n n m ] ] ' { { { ......o.%.%.%.-.&.-.-.-.-.-.4.5.-.5.5.-.4.-.-.-.6.0.0.0.c.0.6.*.' e             ",
"            e x x z z z v z v v m n m ] ] ] { { { ....+.o.+.%.&.&.-.-.-.-.-.-.-.-.-.-.-.-.-.-.-.6.6.0.0.0.0.6.*.' e             ",
"            e z z k k z z v v v n n m m ] ] ' { { ......+.+.+.%.&.*.*.&.-.-.-.-.-.-.-.-.-.*.*.-.;.;.6.6.6.0.6.*.' e             ",
"            e l x k z z z z v v v n n m m ] ] { { { { ......o.+.+.%.%.*.*.&.*.*.&.*.*.-.-.*.&.*.*.;.;.6.6.6.;.%.' e             ",
"            e k x s z f z z z v v v m n n ] ] ] { { { O.......+.+.+.%.%.*.=.&.%.*.*.*.&.%.*.%.%.+.*.;.;.;.;.;.+.' e             ",
"            e s x k s z z f v v v v v n n m n ] ] ] ' { { ..O...+.+.o.+.%.%.%.*.%.%.%.&.%.%.%.%.+.*.*.;.;.;.*.O.' e             ",
"            e r l k s z z z z z v v v n n n m ] ] ] ] | { { ..O...O.+.+.+.+.+.%.%.%.+.%.+.%.+.+.+.+.*.*.*.;.+.O.n e             ",
"              r x k s s k s z z z v v v n m n n ] ' ] ' { { { { O...O.+.+.+.+.+.+.+.+.+.+.+.+.+.+.O.+.*.*.*.O.O.h e             ",
"              e k l s k k s z z z v v v v v n n m ] ] ] { ] { { { O.O...O.+.+.O.+.+.+.+.O.+.+.O.O.O.O.%.*.+.| | z r             ",
"              e r l s k s k s z z z f v v v v n m m ] m ] ] { { { { { O.O.O.O.O.O.O.O.O.O.O.O.O.O.O.O.+.+.O.| | a               ",
"                r k l t k f s z z z z z v v v n n n n m m ] ] } { | | | | O.O.O.O.O.O.O.O.O.O.O.O.O.| O.O.| | m r               ",
"                e r l k s s s s f z z z v z v v v n n m m ] ] ] ] ] ] { | { O.| | O.O.| O.O.O.| | | | | | | | f r               ",
"                  e k l s s s s k z f z z v z v v b n m m m m ] ] ] ] } | } | | | | | | | | | | | | | } | } m r                 ",
"                    r l l s s s k f k z z z z v v v b v b n m m m ] ] ] } } } | | | | | | | | | | } | } } } f r                 ",
"                    r r l l s s s k k k z z z z v v v v v m m m m m ] m } } } } } } | | } | } } } } } } } c r                   ",
"                      r t l l t s s s f s z z z x z v v b v b v m m m m N N } } } } } } | } } } } } } } M k r                   ",
"                        r s l l t s k k k k k z z v z x v v v v b m m m N N m N N N } } } } } } } N } v r e                     ",
"                          e k l l s t k s k k k z z z z x x b v b b b b b m m m m N m N N N N N N N v a e                       ",
"                            e t c l s s s s k k k z z z z z x v v b b b b m M b m N N N N N N N N z r e                         ",
"                              r t l l k s s s k k k z z x b M b M M M b b b M b M b b M N N M M s r                             ",
"                                e r l c l k k l x l c M x b z k z x b M M M M M M M b M M M z a e                               ",
"                                  e e t l c c c c l l s r r r e e r r a z x M M M M M M b a r e                                 ",
"                                      e r t s t a r e e e             e e r a k k k z a r r                                     ",
"                                          e e e e                           r e e e r e                                         "
};
