/* XPM */
static char *_64ce61d9ffc448eeca90d1b11bf51c3xS2AngRuBXum7LyU[] = {
/* columns rows colors chars-per-pixel */
"64 64 3 1 ",
"  c None",
". c black",
"X c magenta",
/* pixels */
"                           XXXXXXXXXXX                          ",
"                       XXXXXXXXXXXXXXXXXXX                      ",
"                    XXXXXXXXXXXXXXXXXXXXXXXXX                   ",
"                  XXXXXXXXXXXXXXXXXXXXXXXXXXXXX                 ",
"                XXXXXXXXXXXXXXXXXXXXXXXXXXXXXXXXX               ",
"               XXXXXXXXXXXXXXXXXXXXXXXXXXXXXXXXXXX              ",
"             XXXXXXXXXXXXXXXXXXXXXXXXXXXXXXXXXXXXXXX            ",
"            XXXXXXXXXXXXXXXXXXXXXXXXXXXXXXXXXXXXXXXXX           ",
"           XXXXXXXXXXXXXXXXXXXXXXXXXXXXXXXXXXXXXXXXXXX          ",
"          XXXXXXXXXXXXXXXXXXXXXXXXXXXXXXXXXXXXXXXXXXXXX         ",
"         XXXXXXXXXXXXXXXXXXXXXXXXXXXXXXXXXXXXXXXXXXXXXXX        ",
"        XXXXXXXXXXXXXXXXXXXXXXXXXXXXXXXXXXXXXXXXXXXXXXXXX       ",
"       XXXXXXXXXXXXXXXXXXXXXXXXXXXXXXXXXXXXXXXXXXXXXXXXXXX      ",
"      XXXXXXXXXXXXXXXXXXXXXXXXXXXXXXXXXXXXXXXXXXXXXXXXXXXXX     ",
"      XXXXXXXX....XXXXXXXXXXXXXXXXXXXXXXXXXXXXX...XXXXXXXXX     ",
"     XXXXXX....XXX.....XXXXXXXXXXXXXXXXXXXXXX...X.XXXXXXXXXX    ",
"    XXXXXXXXXXXXXXXXXXXXXXXXXXXXXXXXXXXXXXX...XXXX.....XXXXXX   ",
"    XXXXXXXXXXXXXXXXXXXXXXXXXXXXXXXXXXXXXX..XXXXXXXXXXXXXXXXX   ",
"   XXXXXXXXXXXXXXXXXXXXXXXXXXXXXXXXXXXXXXXXXXXXXXXXXXXXXXXXXXX  ",
"   XXXXXXXXXXXXX.....XXXXXXXXXXXXXXXXXXXXXXXXXX.....XXXXXXXXXX  ",
"  XXXXXXXXXXXX..XXXXX..XXXXXXXXXXXXXXXXXXXXXX..XXXXX..XXXXXXXXX ",
"  XXXXXXXXXXX.XXXXXXXXX.XXXXXXXXXXXXXXXXXXXX.XXXXXXXXX.XXXXXXXX ",
"  XXXXXXXXXXX.XXXXXXXXX.XXXXXXXXXXXXXXXXXXXX.XXXXXXXXX.XXXXXXXX ",
" XXXXXXXXXXX.XXXXXXXXXXX.XXXXXXXXXXXXXXXXXX.XXXXXXXXXXX.XXXXXXXX",
" XXXXXXXXXXX.XXXXXXXXXXX.XXXXXXXXXXXXXXXXXX.XXXXXXXXXXX.XXXXXXXX",
" XXXXXXXXXXX.XXXXXXXXXXX.XXXXXXXXXXXXXXXXXX.XXXXXXXXXXX.XXXXXXXX",
" XXXXXXXXXXXX.XXXXXXXXX.XXXXXXXXXXXXXXXXXXXX.XXXXXXXXX.XXXXXXXXX",
"XXXXXXXXXXXXX.XXXXXXXXX.XXXXXXXXXXXXXXXXXXXX.XXXXXXXXX.XXXXXXXXX",
"XXXXXXXXXXXXXX..XXXXX..XXXXXXXXXXXXXXXXXXXXXX..XXXXX..XXXXXXXXXX",
"XXXXXXXXXXXXXXXX.....XXXXXXXXXXXXXXXXXXXXXXXXXX.....XXXXXXXXXXXX",
"XXXXXXXXXXXXXXXXXXXXXXXXXXXXXXXXXXXXXXXXXXXXXXXXXXXXXXXXXXXXXXXX",
"XXXXXXXXXXXXXXXXXXXXXXXXXXXXXXXXXXXXXXXXXXXXXXXXXXXXXXXXXXXXXXXX",
"XXXXXXXXXXXXXXXXXXXXXXXXXXXXXXXXXXXXXXXXXXXXXXXXXXXXXXXXXXXXXXXX",
"XXXXXXXXXXXXXXXXXXXXXXXXXXXXXXXXXXXXXXXXXXXXXXXXXXXXXXXXXXXXXXXX",
"XXXXXXXXXXXXXXXXXXXXXXXXXXXXXXXXXXXXXXXXXXXXXXXXXXXXXXXXXXXXXXXX",
"XXXXXXXXXXXXXXXXXXXXXXXXXXXXXXXXXXXXXXXXXXXXXXXXXXXXXXXXXXXXXXXX",
"XXXXXXXXXXXXXXXXXXXXXXXXXXXXXXXXXXXXXXXXXXXXXXXXXXXXXXXXXXXXXXXX",
"XXXXXXXXXXXXXXXXXXXXXXXXXXXXXXXXXXXXXXXXXXXXXXXXXXXXXXXXXXXXXXXX",
" XXXXXXXXXXXXXXXXXXXXXXXXXXXXXXXXXXXXXXXXXXXXXXXXXXXXXXXXXXXXXXX",
" XXXXXXXXXXXXXXXXXXXXXXXXXXXXXXXXXXXXXXXXXXXXXXXXXXXXXXXXXXXXXXX",
" XXXXXXXXXXXXXXXXXXXXXXXXXXXXXXXXXXXXXXXXXXXXXXXXXXXXXXXXXXXXXXX",
" XXXXXXXXXXXXXXXXXXXXXXXXXXXXXXXXXXXXXXXXXXXXXXXXXXXXXXXXXXXXXXX",
"  XXXXXXXXXXXXXXXXXXXXXXXXXXXXXXXXXXXXXXXXXXXXXXXXXXXXXXXXXXXXX ",
"  XXXXXXXXXXXXXXXXXXXXXXXXXXXXXXXXXXXXXXXXXXXXXXXXXXXXXXXXXXXXX ",
"  XXXXXXXXXXXXXXXXXXXXXXXXXXXXXXXXXXXXXXXXXXXXXXXXXXXXXXXXXXXXX ",
"   XXXXXXXXXXXXXXXXXXXXXXXXXXXXXXXXXXXXXXXXXXXXXXXXXXXXXXXXXXX  ",
"   XXXXXXXXXXXXXXXX.XXXXXXXXXXXXXXXXXXXXXXXXXXXXXXXXXXXXXXXXXX  ",
"    XXXXXXXXXXXXXXXX.XXXXXXXXXXXXXXXXXXXXXXXXX.XXXXXXXXXXXXXX   ",
"    XXXXXXXXXXXXXXXXX.XXXXXXXXXXXXXXXXXXXXXXXX.XXXXXXXXXXXXXX   ",
"     XXXXXXXXXXXXXXXXX..XXXXXXXXXXXXXXXXXXXXXX.XXXXXXXXXXXXX    ",
"      XXXXXXXXXXXXXXXXX..XXXXXXXXXXXXXXXXXXXX..XXXXXXXXXXXX     ",
"      XXXXXXXXXXXXXXXXXXX..XXXXXXXXXXXXXXXXX..XXXXXXXXXXXXX     ",
"       XXXXXXXXXXXXXXXXXXX....XXXXXXXX.......XXXXXXXXXXXXX      ",
"        XXXXXXXXXXXXXXXXXXXXXX........XXXXXXXXXXXXXXXXXXX       ",
"         XXXXXXXXXXXXXXXXXXXXXXXXXXXXXXXXXXXXXXXXXXXXXXX        ",
"          XXXXXXXXXXXXXXXXXXXXXXXXXXXXXXXXXXXXXXXXXXXXX         ",
"           XXXXXXXXXXXXXXXXXXXXXXXXXXXXXXXXXXXXXXXXXXX          ",
"            XXXXXXXXXXXXXXXXXXXXXXXXXXXXXXXXXXXXXXXXX           ",
"             XXXXXXXXXXXXXXXXXXXXXXXXXXXXXXXXXXXXXXX            ",
"               XXXXXXXXXXXXXXXXXXXXXXXXXXXXXXXXXXX              ",
"                XXXXXXXXXXXXXXXXXXXXXXXXXXXXXXXXX               ",
"                  XXXXXXXXXXXXXXXXXXXXXXXXXXXXX                 ",
"                    XXXXXXXXXXXXXXXXXXXXXXXXX                   ",
"                       XXXXXXXXXXXXXXXXXXX                      "
};
