/* XPM */
static char *_60af9ca823f43e1b3a59d4c9f902382WxdWEDY0vIZcb3E4[] = {
/* columns rows colors chars-per-pixel */
"64 64 141 2 ",
"   c #0D0403",
".  c #0C0D0B",
"X  c #120606",
"o  c #150C0C",
"O  c #1B0D0D",
"+  c #0D140C",
"@  c #0E180F",
"#  c #14140E",
"$  c #1A110F",
"%  c #10180B",
"&  c #1C0E11",
"*  c #0E1B11",
"=  c #151611",
"-  c #1C1413",
";  c #151A13",
":  c #1A1915",
">  c #1B161A",
",  c #171C18",
"<  c #1C1B19",
"1  c #210E10",
"2  c #221414",
"3  c #2A1615",
"4  c #211917",
"5  c #2D1917",
"6  c #241719",
"7  c #2C1718",
"8  c #241B1A",
"9  c #2D1C1C",
"0  c #321517",
"q  c #30171A",
"w  c #321C1D",
"e  c #3A1B1E",
"r  c #1D211A",
"t  c #2C201E",
"y  c #33221E",
"u  c #38201E",
"i  c #2E1F21",
"p  c #351E20",
"a  c #3A1F23",
"s  c #2E2221",
"d  c #332222",
"f  c #3A2324",
"g  c #302825",
"h  c #3A2826",
"j  c #35272A",
"k  c #3C272A",
"l  c #352929",
"z  c #382A2A",
"x  c #433F3E",
"c  c #47423F",
"v  c #3F4843",
"b  c #454443",
"n  c #4A4645",
"m  c #454B47",
"M  c #4A4946",
"N  c #454449",
"B  c #48474C",
"V  c #454B4A",
"C  c #4C4C4B",
"Z  c #504748",
"A  c #524D4E",
"S  c #4D504F",
"D  c #4D4D51",
"F  c #534D51",
"G  c #4E5251",
"H  c #535353",
"J  c #5D5656",
"K  c #565956",
"L  c #5C5956",
"P  c #575759",
"I  c #5A565A",
"U  c #555958",
"Y  c #5C5C5B",
"T  c #615957",
"R  c #615C5A",
"E  c #56615D",
"W  c #5E615F",
"Q  c #61615E",
"!  c #5E5D61",
"~  c #625E61",
"^  c #5D6261",
"/  c #626363",
"(  c #666867",
")  c #686866",
"_  c #766D6D",
"`  c #7A6D6D",
"'  c #6E736D",
"]  c #74726E",
"[  c #7D726E",
"{  c #6D7170",
"}  c #757575",
"|  c #7B7574",
" . c #757976",
".. c #797976",
"X. c #767679",
"o. c #7A7679",
"O. c #767A79",
"+. c #7C7C7C",
"@. c #817575",
"#. c #807778",
"$. c #817C7C",
"%. c #77807E",
"&. c #7D807E",
"*. c #82817F",
"=. c #7D7E81",
"-. c #817D81",
";. c #7E8282",
":. c #7E8887",
">. c #828383",
",. c #8A8687",
"<. c #868886",
"1. c #8A8987",
"2. c #858689",
"3. c #8A8689",
"4. c #86898A",
"5. c #898989",
"6. c #9C9B97",
"7. c #9C979B",
"8. c #969B99",
"9. c #9D9D9C",
"0. c #A0979A",
"q. c #A29D9D",
"w. c #A99E9E",
"e. c #95A19A",
"r. c #9DA19E",
"t. c #A2A19E",
"y. c #A9A19F",
"u. c #A39FA1",
"i. c #A89FA0",
"p. c #9EA3A2",
"a. c #9FA9A1",
"s. c #A3A4A3",
"d. c #A9A3A3",
"f. c #A5A8A7",
"g. c #A9A9A7",
"h. c #A5A6A9",
"j. c #A9A5A9",
"k. c #A4A9A9",
"l. c #A9A9A9",
"z. c #ADAEB2",
"x. c #FFFFFF",
/* pixels */
"x.x.x.x.x.x.x.x.x.x.x.x.x.x.x.x.x.x.x.x.x.x.x.x.x.x.x.x.x.x.x.x.x.x.x.x.x.x.x.x.x.x.x.x.x.x.x.x.x.x.x.x.x.x.x.x.x.x.x.x.x.x.x.x.",
"x.x.x.x.x.x.x.x.x.x.x.x.x.x.x.x.x.x.x.x.x.x.x.x.x.x.x.x.x.x.x.x.x.x.x.x.x.x.x.x.x.x.x.x.x.x.x.x.x.x.x.x.x.x.x.x.x.x.x.x.x.x.x.x.",
"x.x.x.x.x.x.x.x.x.x.x.x.x.x.x.x.x.x.x.x.x.x.x.x.x.x.x.x.x.x.x.x.x.x.x.x.x.x.x.x.x.x.x.x.x.x.x.x.x.x.x.x.x.x.x.x.x.x.x.x.x.x.x.x.",
"x.x.x.x.x.x.x.x.x.x.x.x.x.x.x.x.x.x.x.x.x.x.x.x.x.x.x.x.x.x.x.x.x.x.x.x.x.x.x.x.x.x.x.x.x.x.x.x.x.x.x.x.x.x.x.x.x.x.x.x.x.x.x.x.",
"x.x.x.x.x.x.x.x.x.x.x.x.x.x.x.x.x.x.x.x.x.x.x.x.x.x.x.x.x.x.x.x.x.x.x.x.x.x.x.x.x.x.x.x.x.x.x.x.x.x.x.x.x.x.x.x.x.x.x.x.x.x.x.x.",
"x.x.x.x.x.x.x.x.x.x.x.x.x.x.x.x.x.x.x.x.x.x.x.x.x.x.x.x.x.x.x.x.x.x.x.x.x.x.x.x.x.x.x.x.x.x.x.x.x.x.x.x.x.x.x.x.x.x.x.x.x.x.x.x.",
"x.x.x.x.x.x.x.x.x.x.x.x.x.x.x.x.x.x.x.x.x.x.x.x.x.x.x.x.x.x.x.x.x.x.x.x.x.x.x.x.x.x.x.x.x.x.x.x.x.x.x.x.x.x.x.x.x.x.x.x.x.x.x.x.",
"x.x.x.x.x.x.x.x.x.x.x.x.x.x.x.x.x.x.x.x.x.x.x.x.x.x.x.x.x.x.x.x.x.x.x.x.x.x.x.x.x.x.x.x.x.x.x.x.x.x.x.x.x.x.x.x.x.x.x.x.x.x.x.x.",
"x.x.x.x.x.x.x.x.x.x.x.x.x.x.x.x.x.x.x.x.x.x.x.x.x.x.x.x.x.x.x.x.x.x.x.x.x.x.x.x.x.x.x.x.x.x.x.x.x.x.x.x.x.x.x.x.x.x.x.x.x.x.x.x.",
"x.x.x.x.x.x.x.x.x.x.x.x.x.x.x.x.x.x.x.x.x.x.x.x.x.x.x.x.x.x.x.x.x.x.x.x.x.x.x.x.x.x.x.x.x.x.x.x.x.x.x.x.x.x.x.x.x.x.x.x.x.x.x.x.",
"....>.} & 4 ] >.J Y q.t.q.q.q.s.s.s.t.s.t.s.q.q.+.} $ O | +.K L t.y.d.y.t.r.r.u.d.w.s.t.t.d.t.9.+.] k e Y Y C L s.s.s.r.t.y.t.s.",
"+.$.o.+.O - O.=.Y / s.s.f.g.f.f.s.s.s.s.f.s.h.f.;.$.2 6 -.+.( R t.t.s.d.p.f.f.s.s.s.g.f.s.s.g.i.<...w w L E ~ ) u.f.a.a.s.d.s.s.",
"+.$.>.O.p d P ( O.} :.;.>.:.>.;.<.;.>.>.*.2.*.<.k.f.7 w J ^ { -.:.>.>.>.>.>.2.-.>.<.2.-.<.>.>.<.k.r.f a U ^ ' ..>.2.;.>.<.<.>.>.",
"$.$.+.| p 7 Y Y +.=.=.+.+.o.+.+.+.+.+.o.+.+.+.&.h.7.s s J / =.+.+.+.&.+.;.+.+.+...%.+...&.O.| >.k.7.s 8 U ( =.-.+.+.+.;.+.+.o.o.",
"o.=.=.+.w w f.a.=.+.o.+.+.=.=.=.;.+.+.+.o.;.+.*.>.&.= $ t.9.>.o.+.+.;.o.+.+.+.;...;.+.+.+.+...;.&.*.- < t.s.&. .+.=...$.+.&...+.",
";.+.%. .w w t.p.>.o.>.*.+.+.-.+.&.o.$...+.+.+.+.O. .@ ; s.l.>.+...$.+.+.o.+.+.+.$.&.+.+.+.>.-.O.&._ ; * q.f.;.+.+.=.+.$.+.&.o.>.",
"=.+.+...# = r.s.;.o.+.+.&...&.+.+.&.+.&.&.+.+.O.C C . > r.j.>.+.+.o.>. .&.+.o.$.+.+.+.;.&.o.+.+.+.O.: ; r.f.>.+.+.o...+.+.-.o.+.",
"+.2.o.+.: : r.s.5.>.$.$.$.>.o.o.+...} } } } o.+.C C = = q.f.<.&.>.o.+... .+.O.} =.+.X.} X.X.+.+.+.&.. = r.r.5.>.-.+.o.} +.o.-.=.",
"O.&.>...> > ..3.p.p.:.=.o.O.V D +.O.H S S G O.+.=.$.= - } 1.d.f.&.+.&.o.H A A C O.O.G S S G  .+.*.| i > +.<.9.s.;.O.V S O.&.+.+.",
"+.$.| | > - #.#.p.9.+.} o.+.C C ..o.M M n M ..+.#.| 4 O ..#.s.6.O.+. .} C b n C o...M b n M  .o...] - - _ $.t.s.&.{ S M ..$... .",
"5 t 2 $ O - . o 2 2 w f q p w 7 w w p w w w 9 w - -   X X o - 4 y 9 9 d 7 p 8 7 w w w w w p w w : - 1 O 1 - - - 2 1 w w q 9 p w ",
"y 9 2 4 - 4     1 $ 9 9 p 9 p 9 p 9 p w 9 w 9 p > & o o o   6 & w 9 p e e d e a y q w 9 w w 9 w - 4 2 - - 6 O 3 3 2 y 9 w w y 9 ",
"q.6.s.9.$.| 2 $ o. .Y L q.u.s.t.p.s.q.s.s.9.s.q.r.u.$.| o o } -.H W 6.s.s.t.t.s.q.s.9.s.s.q.s.9.t.q.y.q.+._ 6 O  .} Y Y 6.g.9.s.",
"r.f.k.s.>.$.- 2 +.-.~ ! h.s.h.h.j.s.j.s.f.j.f.l.h.p.<.X.. . ..-./ ~ s.f.h.h.j.s.l.s.f.f.s.g.f.h.s.g.f.s.2.+.- 2 O.&.! ~ s.h.s.f.",
">.*.>.<.p.u.9 w H / } +.<.;.>.>.;.;.>.>.>.;.>.>.>.4.s.t.t t K Q } X.$.4.-.>.>.>.2.>.>.;.-.>.<.*.>.-.<.3.s.t.# % $ $ | o.=.;.&.;.",
"&.$.O.+.f.s.d w Y ~ ..+.O.+.+.+.;.+.+.+.+.+.&.o.*.$.d.w.d 8 T Y +.=.+.+.&.+.O.+.X.=.+.+.+.+.+.&...+.} >.k.s., + - i _ $.-.$.$...",
"+.=.;.=.>.| 9 p u.s.$.+.+.=.+.-.+.+.+.+.+.+.+.+.O.X.;.&.= # a.r.+.....+.O...>.+.=.O.=.*.O.+.;.o.=.+.>.=.&...; ; 9.p.4.X.;.O.O.+.",
"=.X.+.=.+.+.9 w p.h.;.>.+.+.X.} } } +.o.} } O.o.O.X.:.} : ; 9.h.<.<.+.&.O.+...} ;.+.....o.+.o. .O.} X.} +...: : t.h.<.+.=.+.=.;.",
"+.>.+.+.>.| o 4 +.>.f.l.$.+.K F H S C H H G H C C C +.o.= - >.&.s.f.;.o.+.O.D D  ...M M o. .S S C H A S -.$.o - X.4.s.l.=.o.$.o.",
"..| #...+.} 4 - X...q.s..._ A c c n b n c n n B n G X.+.; = } X.u.s.-.+.$.| F C $.| M M $.| M n n b x n $.$.- - O.+.r.r.O...&.%.",
"s 9 d 9 o - o & - 4 6 9 d t 9 3 # $ 4 4 = 1 9 d q 9 & & & 3 O 2 i 9 8 w 9 t 8 7 9 t 9 8 s 6 - - 8 - - o O 4 o 1 & & w w w w 9 9 ",
"y w w 9 3 $ 4 & 2 O y q q w d f - 2 2 2 O 2 9 p y d 2 6 2 $ 2 O 9 w y w u w w e q e w w d w 2 - 2 2 2 6 O O 1 3 2 2 d 8 y 9 w y ",
"s.s.9.s.s.s.s.9.r.s.9.q.9.u.f.9.+.| 2 6 } &.K T q.s.s.9.s.u.s.q.s.r.s.9.q.u.s.u.q.f.u.s.s.9.+.} 6 O ..+.G Y r.s.s.9.u.r.u.u.u.p.",
"s.l.g.k.s.s.s.s.f.l.l.f.f.s.s.u.2.| - - O.>.W Q u.f.s.l.f.f.s.s.s.f.f.f.f.f.f.s.f.9.f.j.f.u.5.+.4 - +.>.W / r.f.s.f.f.d.s.f.f.s.",
">.+.>.>.$.<.<.>.2.$.+.>.2.<.<.<.h.9.= = K / O.O.>.<.>.>.=.>.<.>.>.>.-.>.>.<.>.>.<.<.&.>.+.>.f.q.= = L ^ +. .>.;.>.>.>.>.>.>.-.>.",
"&.o.+.o.o.+.+.o.+.+.>.+.o.| o.<.s.s.* ; H ~ o.O.+.+.o.+.+...+.+.$.>.o.+.o.+.o.o. .>.o.+.+.>.j.9., = J Y o.+.&.+.+.+.+.+.+.+.+.+.",
"o.o.&.+.o.+.+.>.+.o.+.;.+.+.+.+.-.o.; @ s.j.=.+.+.=.+.>.+.+.>.X.o...} +.+.>.+.+.+.+.+.o.+.+.>.+.; = t.f.-...>.&.&.+.+.+.$.+.&.+.",
"+.>.} ..} }  .} -.+.+.+.} } >.-.+...: - u.s.<.&.>.+.+.o.} } +.} +.;.+.=.} } } } +.+.}  .+. .o.+.: = t.s.>.>.+.+.+.+.+.+.o.+.+.+.",
"o.X.C K H H C C O.+.>.| H C } +.=.$.6 t o.2.f.g.k.s.<.} H F F D o.+.o.} H H C G O.o.C C C C o.;.- - $.5.s.k.>.+.+.*.+.+.+.&.$.;.",
"&.o.b b b B b C X.+.+.} G C o...o.| f f | +.s.t.s.u.+.} b m b m } +.+.} C b b C o.o.D m c H o.} 2 > } o.r.r.O.o.+.o.+.+.o.o.+.o.",
"p 9 # ; = = - O 6 2 - 2 q 0 w y # : 9 p e q w y p 9 - ; @ # 4 O 4 - - 2 7 k 0 e q t # $ s d $ % O 2 2 4 d 9 d w w 9 w 9 w 9 w 5 ",
"9 s - = = : - 2 - o 4 - f w d 9 , r s g d 9 9 t 9 t - = ; ; - - 2 2 O - s 9 d d 9 t ; - s i : , - - O $ t f 8 p d t d 5 y t t d ",
"s.d.q.q.s.r...| 6 8 | | Y J q.d.r.r.t.q.t.q.r.t.q.d.q.r.s.9.$.| 2 - | $.Y Y 9.s.w.d.r.r.u.i.q.r.9.9.s.r.$.` h p | +.L Q q.t.y.t.",
"s.f.s.s.k.q.4.+.& O ..2./ / s.t.f.g.f.f.s.s.f.g.s.f.s.g.f.s.5...- $ $.+.W ^ r.k.d.f.f.f.d.g.f.l.l.s.f.r.<.o.t 9 &.>.Y ^ s.f.h.f.",
">.<.>.>.*.5.a.p.9 i R Y X.o.+.2.-.>.>.>.:.;.;.;.:.;.;.>.>.2.s.9.= : t.f.j.9.3.>.=.>.;.>.>.+.>.;.-.2.>.:.a.9.< - U Y O.+.>.;.;.>.",
"O.+.o.+.o.>.s.p.p 7 J / =.<.o.+.+.+.=.&.+.=.=.+.&.o.+.+.+.;.s.a.; # s.f.u.s...-.+.+.+.+.+.+.&.+.$...+.=.f.8., = P ! +.=.+.+.=.o.",
"+.%.+.+.-.+.<.} w d s.h.=.} +.+.$.+.+.o.+.+.+.=.+.X.>.+.+...<.+.= = K Y +.>.+.+.+.+.+.+.+.+.o.+.$...+.+.;.+.= = s.s.+.o.>.+.=.+.",
"+.+.>.O.+.+.+.o.w d u.p.4.+.*.+.&.o...o.+.+.o.} | o...X.} +.o.o.= : K P =.;.+.O.+.+.$.+.+.&.+.+.+.>.o.+.$.X.= , r.s.5.+.+.=.X.+.",
"&.o.+.-.+.-.+.+.e 9 +.>.k.j.>.+.$.o.G V O.} H A H H F F H F +.+.w 9 $.=.k.s.>.+.+.=.=.+.;.+.=.+.$.+.+.;...$.t w +.;.s.f.=.+.=.+.",
"$.| ..+.+. .-.| f y | >.9.r.o. .+...C C +.| C v b b b b M A } ..f y | +.p.r. ...o.$.o...o.$.} +...+.=.O.$.[ w f | &.9.s.$.} o.$.",
"w s : + ; = 9 p w w y 9 : # 8 9 9 y w w f 9 $ ; # : 9 9 w 7 y 9 e 5 p 9 d i 9 y d t 9 f 7 s : = ; + . , 5 u x q 9 5 8 y 5 9 9 y ",
"p s # + , = 9 i d u w w $ 4 9 h k e w w f w 4 # : - s s p p a w w h 7 d f 9 w 9 y 9 h d 9 8 = = % , # < 5 0 0 d f a e w w w w q ",
"u.9.s.l.9.s.j.u.r.q.q.s.e.e.+.} y d @...L Y r.s.t.r.s.9.q.9.9.q.r.p.9.9.u.9.+. .9 9 _ | U ! 7.r.p.s.s.7.p i i.f.7.a.s.9.s.t.t.s.",
"h.f.h.s.u.s.u.a.s.k.r.k.a.a.4.+.q y +.O.^ E s.f.s.s.f.j.f.f.f.h.f.f.s.j.h.u.>.} h j -.;.! ! h.j.f.s.z.u.i j 9.p.f.k.s.s.f.k.f.r.",
"+.+.~ Y u.h.s.j.d.u.l.s.q.d.+.o.e 9 $.+.! ! s.u.g.g.u.u.s.u.s.h.s.l.s.g.s.u.j.u.q.9.s.9.p.9.p.u.s.a.;.] i w $.=.Y ! +.-.>.>.>.<.",
"....Y K a.9.9.q.q.p.r.8.s.0.2.O.w t | X.^ ^ 7.a.9.t.9.p.9.p.u.9.q.7.t.9.p.8.9.9.a.s.9.u.7.9.s.r.q.7.4.} 9 w [ o./ U O.;.+.O.o.+.",
"Y / } +.>.&.<.>.2.>.<.+.>.<.s.9.= ; H ) } o.;.;.;.>.<.&.>.;.+.>.>.;.>.>.>.>.>.>.;.<.;.>.<.;.>.>.;.>.s.r.= = K ~  .o.+.O.+.;.o.&.",
"Y W ..+.o.+.o.o.O.o.+.+.;.>.s.s.; # K W } =.X.%.+.O.+.o.+.$.;.+.+.>.+.+.+.+.o...O.X.+.+.O.+.=.+.O.5.s.8.; . Y ) +.+.} X.o.O.+.| ",
"q.s.>.o.*.+.+.>.+.;.+.O.+.O.<.o.= = H / ..=.+.+.+.*.+.+.+.+.+.O.+.X.+.&.O.+.>.o.=.=.;.O.+.=.X.>.+.+.>.+.= r 8.k.;.O.D B N B +.=.",
"r.s.>.>.&.O.+...}  .O.} ;... .o.> = K Y +.=.+.+.o.+.} O.}  . . .$...O.O.O.+.o. .o.+.+.O.X.O.o.o.;.o.=.+.= , a.t.>.+.C C C C X.+.",
">.=.k.g.+.&.+...G C H H | +.H D - = $.-.f.f.>...&.o.H V G H D G | } C C +.} M C $...+.O.D C +.&.O.>.O...6 $ $.<.s.s.O.} -.} +.+.",
"+.o.9.9.| ..*...n b m Z | ..b b - 6 } $.u.q.$.| +.] A c n b n C | } m B $...C C @.*.O.' M n | $.$...+...O 4 ..| t.t.*.| $.| | +.",
"& - - 6 s i j d l l l i f j $ 4 4 & > - - & 4 - 4 6 s s j s s s , , , < s 9 : ; w g % t l d d s d d $ : - 2 r r t g t y s d d d ",
"- 1 2 2 w w w w w 9 9 p p w 3 $ 1 2 & 4 & 4 $ 2 2 O d p p p p p = ; = < p p - * w t # $ t w w w e q 4 2 $ 2 # * w q 9 w 9 9 f 5 "
};
