/* XPM */
static char *_e075db77bea42c2cc9550c7c919ac3bbGyzE1MiCFINb6P7[] = {
/* columns rows colors chars-per-pixel */
"64 64 89 1 ",
"  c #0D0404",
". c #140C0C",
"X c #1E0C0C",
"o c #0E110C",
"O c #11150F",
"+ c #1C100F",
"@ c #10180B",
"# c #1C0F10",
"$ c #131611",
"% c #1E1212",
"& c #161913",
"* c #181B15",
"= c #220F0F",
"- c #22100F",
"; c #211414",
": c #281515",
"> c #241919",
", c #2E1B1B",
"< c #301817",
"1 c #321D1D",
"2 c #391F1F",
"3 c #142013",
"4 c #182316",
"5 c #33201F",
"6 c #331D21",
"7 c #381F20",
"8 c #342121",
"9 c #3A2020",
"0 c #382828",
"q c #454444",
"w c #4C4C4C",
"e c #525252",
"r c #595656",
"t c #575B5B",
"y c #5D5C5C",
"u c #5F6060",
"i c #626262",
"p c #606868",
"a c #686868",
"s c #757373",
"d c #747473",
"f c gray46",
"g c #767475",
"h c #757776",
"j c #777777",
"k c #787777",
"l c #787877",
"z c #77757B",
"x c #737878",
"c c #777979",
"v c #777B7B",
"b c #777C7C",
"n c #797878",
"m c #7B7A7A",
"M c #7C7B7B",
"N c #7D7B7B",
"B c #7B7C7B",
"V c #7B7C7C",
"C c #7C7C7C",
"Z c gray49",
"A c gray50",
"S c #7D8080",
"D c #808080",
"F c #818181",
"G c #818282",
"H c gray51",
"J c gray52",
"K c #858686",
"L c #868686",
"P c #9B9B9B",
"I c #9F9E9E",
"U c #A09F9F",
"Y c #A19F9F",
"T c #9FA09F",
"R c #A0A09F",
"E c #9F9FA0",
"W c #A09FA0",
"Q c #9FA1A1",
"! c gray63",
"~ c #A2A3A3",
"^ c #A4A3A3",
"/ c #A0A6A6",
"( c #A4A4A4",
") c #A5A5A5",
"_ c #A5A7A7",
"` c #A6A6A7",
"' c #A8A7A8",
"] c #A7A8A8",
"[ c #A9A9A9",
/* pixels */
")!11Zmyy!)/^))^)!YGx11Zmyy!)!^!!))!)))/^^^)/^^)!))!)!!Gx11mmyy!)",
"/I11mhiyEIIIYIIIIPLz11mciyQIIIWYIEIIEIIYIIIIIYIIYEIIIPLc11mhiyI!",
"GB&$rihmSGGGGGGGGL)E*&rihmSGGGGGGGGGGGGGGGGGGGGGGGGGGL)I*$rihmGG",
"Zc&$yymZZZMMMVZmZS)!&$eymZZZCCMCZZMMmZMMZMMZZVMCMVZZmG)Q&$timZZm",
"Zm,6T!ZZZVZMZZZZVZGm&$eikmZVZVZZZCZZZZZZZZZZZBZZZZZZmZGm$&E^ZZVZ",
"Zm18!)LGZZmZhhhkVmmh&&riZGZmCCnhkhhhZCkhMZhkZZZmkhMZZZZm&&!)LAZV",
"ZZ%%ZL))GmMkweewcmrwX%mZ))GZZneweeewhcwehkwwhZZMwwmZZZZZ%%CL/)GZ",
"Zh%;hZ!EcmMmwqqwccqq>>hSRYVmmhwqqqqwmmqwMkwwMBMhwwzMmmVh;%sZ!Qcm",
"%%;%;%%;111,,1<,11%;%.%X%%%%X;18112<&&O&17OO51$&129811;;XX&$111,",
"%%;;;%%%1,61581111%%;;%%%%=;;;<17671&&&&11&&11*&191891%#;;*&,111",
"MmZh;;kMryQ^!!!!!^!!!!/YZh%%cMryI^!^!!T!^^!!^^!IVh78tteyE^!!!!!!",
"ZCZCX;mGiy![)')'))))))'^LV#;ZZiu!'))))))))')]))!Lm12tyya/')))]))",
"ZZZM,1rihmAGGGGGGGGGGGGL/!62rihmGGGGGGGGGGGGGAGL/W82ryhmGGGGGGGG",
"ZZmm1,yimZMMMZMMZBMMMMmG)!1,yumZMZVZMMZmMMMZZMmG)!1,ypmZMMmZZZMM",
"ZZZm18W!ZZZZZZZZZZZZZZMZGZ&&Y!AZZZZZZZZZZZZZZZMZGm&&I~GmZZZZZZZZ",
"ZZZm,1^)GZZZZZZZZmZMZMZZlkO&!'GMZmZmMZMZZMZMMZZmMmO&!)GMMZBZBZMZ",
"ZZZc&&!)AMMZMZZZMMZZZMZnwwo&!]GZmZCCVZZZMZZZZZMZZm$&!'GMZmZmZCCC",
"ZZZm&&E^LGZZZZhmMZhhhkCkww$&R/LZZMZmkkhhZZnhhhmMZm$&E!LGZmhkMVZC",
"ZZZZ%%ZL/)GZZhwwmhweewnCZm%%ZL))GZZkwerwhMweewzMZC%%ZL)!GhwwkZMZ",
"mmVh%%sCRQmmMMwwmcwqqwmMZh:%sZR!cmMnwqqwmnwqqwnmMh%%dZ!YVkwwmMMm",
"1,%%%;..%;16,1,1112<1,<1%%  ..%;,1,1<2<<,1<1<21,%%=X#%;;;;1<1,1,",
"11;%%>  %%<,111611151161;%... %;1161551911168111;%;;%;=X;;111116",
"!!!EZh;%kMryI!Y!!!!!!!!!!!Ms..hMryE/!!!!!!^!!!Y^Y!!YMs;%kMryI)Q!",
"Q)'!LZ%;MZii!')'')))'))')!LM .MGii![))')'))')'))))'^LC%%mMiu!]`)",
"GGGL!!1,rihMGDGGGGGGGGGGGL^Y11ridmZGGGGGGGGGGGGGGGGL)!&@#;dmSGGG",
"ZZZZ)Q8,yymZVZMCZZMMBZMBMG^^1,yymZZVZMMMZMmMMMZBMCmG)/*o%>dZMZMM",
"ZZZZGm,8Y!ZZCCCZZMCZBBZZCMGM&*Y!ZBZZMZZZBZZZMMZZCZZZGM$&I!GmZmZM",
"ZZZZZm,6!)LDCCnhkhhhhzhhhhMM$&!)LAZmmMnhZZhmZMhhhhhhmM&&Q)LDZZMZ",
"ZZCZZM%%ZL/)GkeeeeeeeweeewAM&&ML/)GmZhwwccwwnneweeweAV%%ZL/)GmZZ",
"mmmmMh%;hZ!!Vkwqqqqqqqqqqwkh&&sM!!bMMzwwmmwqnhwqqqqqVc;%hZ!Qcmmm",
",,1,%%..%#11,,<<X;>>=X881<;;X=X%11,,,,<<1,,,11#%>>=#%%X=%X81,,,,",
"1811%%;;%%1,1188;%;%%;1668;=;;%%11118181111166%;;%;;XX;;%%,11118",
"!!!!!!!WY!!!!!!YCs;;hVryI^R!R!!Y!!!!!!!!!!!!^WZs;%hCeyI~!W!!!!!!",
")')))))))[)))')!LM%;VZiy![)))]))))))))'))))))^LZ%%ZZiu^)``)))'))",
"GGGGGGGGGGGGGGGL)I&OrihmGGGGGGGGGGGGGGGGGGGGGH)Y&$rihnAGGGGGGGGG",
"ZMZMZZZZMZMZMZMG)R&OtimZVMMZMZZMZZmZMMZMCMMCCH)W&$rumCZmZZCMMZZZ",
"MMZZmZZZZMZZZZZZGC$&Q!GmZZZCZZZmCCCMMZMZCCCCCCDC$&E!AZCZVZVZMCCZ",
"ZZhhghhhZZZMhcZBZl&&Q)LGGZZmhhhzmCCMhhhhCnhhnhCC&&Q)GGVCZVZVCMCM",
"ZceeeeewcZZMwwcZDM,,mL/)[QGkeeewzZCneeewnzweewCC%%ZL))GVZZVVZmZZ",
"ZmqqqqqwkMMhwwkmmz99sM!)!YZhqqqwhmMswqqwnMwqqwnh;%hV!!cmmmmmmmMM",
"11$$$$=X;;%;1<11$&,8,,111,$&OO;X;;%%<0<111$$71$&X;%%5818,1111,1,",
"11*&&*%;%%%;2186&&8955,111&&&*%%;%%;119811&&81&&%;%%1116711,1118",
"!^!!!IZh;;hmryI^!Q^!!R!^!^!W!YZs;;hntyI)W^E!^!!!YYQ!bs77MVtyY)!!",
"')))[!LZ%%MGii!))]/))/]))'))'^LZ%%ZGyi!))'))')))))]!Lm11Mmiu!`))",
"GGGGGL!!1,rihmGGGGGGGGGGGGDGGL)W&&Y'^ILGGGGGGDGGGGGG/W*$rihmGGGG",
"mZMmMG)!6,yumZmMMMMBZZMMZVMZMG)E&&!))!ZMZZCCMMCCZMMG)I&$yykZVZmM",
"MZVZVZGc17Y/ZZMZZMZZZMZZmZMZBZGm$OtyZAZZVCCCCCCCZBMZGC$&I/ZMZmZm",
"VZZmZVZm11!)LZZMZMlhMZkhghmhhhmm&$ryZGZMCCCCCCCCMZMZZn$&!)LSZZVZ",
"ZZZZVZZZ11VL))GZZhwwnkweeeweeemZ11mZ))GVZVVmZCZCZMZZCC11CLQ`GBZZ",
"mmmmmmZh99hZQQcmMmwwmkwqqqqqqwmh99hS!!cmmmBMmmmmMMmMCh77gmQQVzmm",
"1,$$$&11581,&&,1591122O@$&111<11511,11,188,811&$$$O$77111,18,,,1",
"11&$&&118111&&,781162<**&*11815188,88,,88176,,&&&&&&<108116,8111",
"!!!!!!!YIYWEWEZh22kmryY!TR!QYI!IIWYR!IVg,,hmtyP!QQ^P88I)!!^!!!!!",
"))))!))!))))))GZ11ZAuu/))))))))))))))!Lc80mZyi^))/[!11![))))))])",
"GZyyI)Q))!)^!IGc11MnytW))))Q)))/^))/)!Q)Q!)I!I!^)QLs11VZyyZGGGGG",
"mhtyIE!QI!QI!PLz11MkiuIIIIIIIIIIIIYYIEII/QIIEI!IIPLs,1khithZmZmZ",
"yihmDGGGGGGGGL!W&$rihmGGGDGGGGGGGGGGGGGGGGGGGGGGSL~Q&$rihlBBZZMZ",
"yymZMMmZVMZVmG)W&$eucZMCCCCCmZVZMMZZMmMMmZMMMMCVCG)Q&otimZhhhlMM",
"!!ZZZZVZZZZmZZGZ&$einmZVCCCCZZmVZmZZZmMMZVZZMZCCCZGV&&Q~GhwqwwhM",
"YWLGZmZZhhhmZMkk&$riZGZCMMkhhhhhMmhhmmmhmMVmhkmZCCZm$&Q)LmwwqwkZ",
"GL))SZZhweewkhrw%%MZ)^GZCneweeeeccewmzwwzZZhwwmZZZZC%%ZLQ)VhZzmZ",
"kcI!cmZmwqqwMMqq>;hZWYCnChwqqqqwczqwmhwwmZmhwwfMmmVh;;hV~!vmmmmm",
"%%;;8889080820%>%;;;;;%;;;888888**3*78$&98**087887;;%%4*88888868",
"%%%;,15111168,%%%%%%%%%%%;16568,*&$*6,*&,,&&,1116,;%%%&*,1,1,15,"
};
